Coordinates
version=1
nRows=84
nColumns=11
inDegrees=no

Units are S.I. units (second, meters, Newtons, ...)
If the header above contains a line with 'inDegrees', this indicates whether rotational values are in degrees (yes) or radians (no).

endheader
time	pelvis_tilt	pelvis_tx	pelvis_ty	hip_flexion_r	knee_angle_r	ankle_angle_r	hip_flexion_l	knee_angle_l	ankle_angle_l	lumbar_extension
210.01	-0.109771	-0.0744466	0.887973	-0.0146579	-0.280004	0.44128	0.684807	-0.49484	0.186622	0
210.02	-0.108872	-0.0730576	0.887349	-0.026748	-0.279402	0.436081	0.672037	-0.489435	0.16938	0
210.03	-0.111492	-0.0725064	0.886624	-0.0297196	-0.287395	0.433053	0.668109	-0.490216	0.155232	0
210.04	-0.134113	-0.0750271	0.884783	-0.00520705	-0.297195	0.42473	0.696778	-0.504564	0.152684	0
210.05	-0.11573	-0.0715384	0.885714	-0.0321162	-0.312521	0.422365	0.6744	-0.527721	0.167442	0
210.06	-0.116813	-0.0707698	0.885826	-0.0315771	-0.330306	0.414741	0.67567	-0.549086	0.18334	0
210.07	-0.119889	-0.0704364	0.886376	-0.0243162	-0.35537	0.400484	0.675164	-0.561046	0.191913	0
210.08	-0.121946	-0.0699075	0.887173	-0.0162154	-0.384153	0.381688	0.670062	-0.566188	0.197737	0
210.09	-0.123672	-0.0693455	0.888038	-0.00497933	-0.418712	0.359624	0.661456	-0.56616	0.20406	0
210.1	-0.123897	-0.0683445	0.889232	0.00595698	-0.455184	0.33135	0.649177	-0.564085	0.212901	0
210.11	-0.122397	-0.0669287	0.890636	0.0169924	-0.494436	0.304739	0.63402	-0.561371	0.221988	0
210.12	-0.120622	-0.0657635	0.892164	0.0324267	-0.540147	0.270363	0.619299	-0.558438	0.230584	0
210.13	-0.119039	-0.064848	0.893466	0.0517563	-0.59015	0.233831	0.607222	-0.558456	0.237885	0
210.14	-0.117394	-0.0644935	0.894664	0.0764795	-0.648736	0.196296	0.5961	-0.56025	0.242415	0
210.15	-0.140457	-0.0678373	0.894435	0.13697	-0.71039	0.16138	0.615474	-0.557992	0.243899	0
210.16	-0.139564	-0.0676292	0.895583	0.166135	-0.771549	0.131005	0.60269	-0.5552	0.246276	0
210.17	-0.138744	-0.0676793	0.896512	0.197162	-0.834061	0.100764	0.590636	-0.551786	0.252866	0
210.18	-0.135555	-0.0674168	0.897627	0.223014	-0.890618	0.0710807	0.573917	-0.545858	0.260567	0
210.19	-0.114496	-0.0638404	0.899887	0.221027	-0.935652	0.04366	0.534974	-0.543771	0.270022	0
210.2	-0.112059	-0.064114	0.9009	0.247315	-0.984849	0.025327	0.520881	-0.540856	0.275476	0
210.21	-0.114649	-0.065514	0.901515	0.281401	-1.03628	0.0240881	0.514262	-0.538742	0.283077	0
210.22	-0.130714	-0.0688144	0.901152	0.337121	-1.09069	0.0384128	0.525776	-0.534692	0.289122	0
210.23	-0.137737	-0.0709808	0.901531	0.378031	-1.13737	0.0614834	0.525171	-0.531645	0.291664	0
210.24	-0.123487	-0.0686626	0.904204	0.379256	-1.16002	0.0834991	0.491061	-0.522074	0.296673	0
210.25	-0.102498	-0.0650305	0.907175	0.37259	-1.18008	0.100673	0.447921	-0.511974	0.300581	0
210.26	-0.120667	-0.0701276	0.906835	0.430852	-1.2151	0.114032	0.460051	-0.501977	0.299468	0
210.27	-0.117939	-0.0711741	0.908063	0.45477	-1.23641	0.127319	0.444703	-0.493392	0.305295	0
210.28	-0.0991298	-0.0686987	0.910535	0.451381	-1.24511	0.135882	0.408265	-0.489564	0.309683	0
210.29	-0.115466	-0.0725856	0.910491	0.500935	-1.26	0.143049	0.414058	-0.475578	0.306887	0
210.3	-0.124549	-0.0749734	0.910697	0.53964	-1.26956	0.150894	0.412463	-0.465005	0.305108	0
210.31	-0.111521	-0.0737304	0.913261	0.538819	-1.2603	0.161114	0.376327	-0.446209	0.307898	0
210.32	-0.109418	-0.074745	0.914473	0.556305	-1.25335	0.174272	0.358488	-0.432774	0.308256	0
210.33	-0.107955	-0.0757212	0.915298	0.574129	-1.24407	0.189492	0.34287	-0.422153	0.31168	0
210.34	-0.108568	-0.0767066	0.915971	0.593453	-1.22995	0.206845	0.329891	-0.410355	0.312571	0
210.35	-0.108561	-0.0776428	0.916672	0.609618	-1.21012	0.225192	0.316064	-0.398778	0.311831	0
210.36	-0.0913194	-0.0757889	0.918744	0.595969	-1.17996	0.239072	0.277798	-0.387374	0.313846	0
210.37	-0.086024	-0.0756237	0.919609	0.600816	-1.14929	0.246827	0.256836	-0.37617	0.316082	0
210.38	-0.0878134	-0.0771068	0.919785	0.615025	-1.11653	0.247513	0.247408	-0.368732	0.318068	0
210.39	-0.106549	-0.0818447	0.918543	0.652369	-1.08289	0.246516	0.258742	-0.356713	0.315658	0
210.4	-0.107294	-0.0829441	0.918381	0.660522	-1.04268	0.242696	0.246595	-0.346535	0.316161	0
210.41	-0.0883053	-0.0809951	0.919577	0.638597	-0.998308	0.234876	0.207813	-0.338007	0.323972	0
210.42	-0.0875697	-0.0819524	0.91944	0.642323	-0.953043	0.22738	0.192256	-0.324955	0.328725	0
210.43	-0.088411	-0.0832988	0.918923	0.647465	-0.906932	0.218189	0.180793	-0.317099	0.331408	0
210.44	-0.0914537	-0.0849027	0.917873	0.655808	-0.862057	0.207857	0.174272	-0.313734	0.334308	0
210.45	-0.0865362	-0.0843705	0.917298	0.650986	-0.814734	0.198578	0.155129	-0.305469	0.341319	0
210.46	-0.0929865	-0.0864397	0.916062	0.657865	-0.764226	0.191088	0.147645	-0.292592	0.345268	0
210.47	-0.0954711	-0.0874095	0.914893	0.660528	-0.71644	0.187556	0.138619	-0.287189	0.350535	0
210.48	-0.11633	-0.0914059	0.912109	0.687126	-0.670083	0.188648	0.154377	-0.281155	0.352453	0
210.49	-0.0988645	-0.0887857	0.911966	0.661837	-0.62568	0.19295	0.119406	-0.277413	0.362677	0
210.5	-0.0986376	-0.0891363	0.910607	0.65888	-0.581704	0.195901	0.106199	-0.270903	0.367977	0
210.51	-0.098525	-0.0895964	0.909235	0.657246	-0.542416	0.196737	0.0935355	-0.264047	0.374003	0
210.52	-0.0997111	-0.0903298	0.90774	0.657321	-0.505957	0.193404	0.0842166	-0.260619	0.381314	0
210.53	-0.097623	-0.0901121	0.906278	0.652086	-0.473976	0.196997	0.0698451	-0.256649	0.388978	0
210.54	-0.0969919	-0.0899256	0.904676	0.648622	-0.446867	0.20156	0.0577954	-0.253692	0.396437	0
210.55	-0.0965047	-0.0897867	0.903149	0.646347	-0.426673	0.203618	0.0465019	-0.25204	0.403095	0
210.56	-0.0950639	-0.089219	0.901762	0.643872	-0.414011	0.206652	0.0343903	-0.252021	0.406961	0
210.57	-0.0926135	-0.0882286	0.900333	0.638586	-0.404388	0.213559	0.019774	-0.249848	0.411985	0
210.58	-0.091144	-0.0874566	0.898955	0.634834	-0.400911	0.218693	0.00712784	-0.248918	0.415911	0
210.59	-0.090841	-0.0870555	0.897598	0.635345	-0.406676	0.216879	-0.00144879	-0.253239	0.419447	0
210.6	-0.0898428	-0.0864823	0.896339	0.637052	-0.421169	0.206793	-0.011293	-0.256562	0.421051	0
210.61	-0.0879059	-0.0856712	0.895122	0.635743	-0.43703	0.191737	-0.0226637	-0.258659	0.423986	0
210.62	-0.0865681	-0.084724	0.893935	0.632998	-0.451213	0.177387	-0.0343673	-0.25887	0.427209	0
210.63	-0.0849955	-0.0835619	0.89281	0.629596	-0.466786	0.169147	-0.0452192	-0.2626	0.427757	0
210.64	-0.0825371	-0.0820092	0.891893	0.62608	-0.484235	0.167095	-0.0572909	-0.266189	0.425428	0
210.65	-0.0811042	-0.0804796	0.891164	0.623995	-0.502318	0.162634	-0.0679212	-0.270833	0.421134	0
210.66	-0.0804763	-0.07938	0.890513	0.622382	-0.518548	0.156562	-0.074539	-0.280516	0.417841	0
210.67	-0.0799575	-0.078369	0.890055	0.621396	-0.535503	0.15793	-0.0797011	-0.291845	0.412746	0
210.68	-0.099533	-0.0800119	0.888478	0.647852	-0.55576	0.169269	-0.0580834	-0.302923	0.399662	0
210.69	-0.0801469	-0.0759314	0.889481	0.620366	-0.57315	0.185097	-0.0870876	-0.317484	0.392543	0
210.7	-0.0762413	-0.073556	0.889882	0.608994	-0.582365	0.200244	-0.0958148	-0.329582	0.380123	0
210.71	-0.0737454	-0.0715334	0.890369	0.599361	-0.59197	0.20674	-0.0978429	-0.351091	0.366723	0
210.72	-0.0718324	-0.069697	0.890852	0.589915	-0.6009	0.21713	-0.0957995	-0.378497	0.347672	0
210.73	-0.0703694	-0.0680328	0.891293	0.579538	-0.606808	0.228315	-0.0893741	-0.411084	0.32455	0
210.74	-0.0684378	-0.0663338	0.891956	0.566215	-0.608253	0.241663	-0.08058	-0.447861	0.298415	0
210.75	-0.0656364	-0.0643351	0.892943	0.551537	-0.609998	0.256698	-0.0698858	-0.490113	0.27235	0
210.76	-0.0635382	-0.0626468	0.894044	0.537668	-0.611415	0.268733	-0.0531696	-0.540057	0.240171	0
210.77	-0.0611196	-0.0612978	0.895221	0.524624	-0.61391	0.276546	-0.0333076	-0.593769	0.203629	0
210.78	-0.0568751	-0.0593399	0.896482	0.509567	-0.615361	0.281067	-0.0120358	-0.650723	0.163732	0
210.79	-0.0577484	-0.0590601	0.897657	0.498353	-0.612724	0.290796	0.0181417	-0.711575	0.1254	0
210.8	-0.0548944	-0.0578059	0.898866	0.4827	-0.610505	0.301606	0.0468062	-0.773252	0.0779613	0
210.81	-0.0535718	-0.0570009	0.899812	0.470553	-0.611064	0.30759	0.0800823	-0.836899	0.0325402	0
210.82	-0.0691332	-0.0589534	0.899631	0.47935	-0.60698	0.314569	0.139751	-0.903174	-0.0168147	0
210.83	-0.0666737	-0.0584947	0.900558	0.463001	-0.601437	0.323038	0.17285	-0.961336	-0.0678702	0
210.84	-0.0624976	-0.0582917	0.901729	0.442725	-0.593987	0.333711	0.200613	-1.01136	-0.117229	0
